<svg width="39" height="39" viewBox="0 0 39 39" fill="none" xmlns="http://www.w3.org/2000/svg">
<path fill-rule="evenodd" clip-rule="evenodd" d="M10.9688 11.375C10.9688 8.45824 13.3333 6.09375 16.25 6.09375C19.1667 6.09375 21.5313 8.45824 21.5313 11.375C21.5313 14.2918 19.1667 16.6562 16.25 16.6562C13.3333 16.6562 10.9688 14.2918 10.9688 11.375ZM16.25 3.65625C11.9871 3.65625 8.53128 7.11206 8.53128 11.375C8.53128 15.6379 11.9871 19.0938 16.25 19.0938C20.513 19.0938 23.9688 15.6379 23.9688 11.375C23.9688 7.11206 20.513 3.65625 16.25 3.65625ZM7.00945 29.9039C8.61321 26.3994 12.1491 23.9688 16.25 23.9688C20.351 23.9688 23.8869 26.3994 25.4906 29.9039C25.8283 30.642 25.6749 31.3183 25.1865 31.877C24.6674 32.4711 23.7679 32.9062 22.75 32.9062H9.75003C8.73213 32.9062 7.83279 32.4711 7.31349 31.877C6.82523 31.3183 6.67175 30.642 7.00945 29.9039ZM16.25 21.5312C11.1606 21.5312 6.7789 24.5502 4.79302 28.8896C4.01035 30.5999 4.4351 32.2876 5.47823 33.481C6.49031 34.639 8.07555 35.3438 9.75003 35.3438H22.75C24.4246 35.3438 26.0098 34.639 27.0218 33.481C28.0651 32.2876 28.4897 30.5999 27.7071 28.8896C25.7212 24.5502 21.3395 21.5312 16.25 21.5312ZM29.25 13.4062C29.9231 13.4062 30.4688 13.9519 30.4688 14.625V18.2812H34.125C34.7981 18.2812 35.3438 18.8269 35.3438 19.5C35.3438 20.1731 34.7981 20.7188 34.125 20.7188H30.4688V24.375C30.4688 25.0481 29.9231 25.5938 29.25 25.5938C28.5769 25.5938 28.0313 25.0481 28.0313 24.375V20.7188H24.375C23.7019 20.7188 23.1563 20.1731 23.1563 19.5C23.1563 18.8269 23.7019 18.2812 24.375 18.2812H28.0313V14.625C28.0313 13.9519 28.5769 13.4062 29.25 13.4062Z" fill="#435EBE"/>
</svg>
